Coordinates
version=1
nRows=14
nColumns=24
inDegrees=yes

Units are S.I. units (second, meters, Newtons, ...)
Angles are in degrees.

endheader
time	pelvis_tilt	pelvis_list	pelvis_rotation	pelvis_tx	pelvis_ty	pelvis_tz	hip_flexion_r	hip_adduction_r	hip_rotation_r	knee_angle_r	ankle_angle_r	subtalar_angle_r	mtp_angle_r	hip_flexion_l	hip_adduction_l	hip_rotation_l	knee_angle_l	ankle_angle_l	subtalar_angle_l	mtp_angle_l	lumbar_extension	lumbar_bending	lumbar_rotation
      0.60400000	     -4.17627459	      1.74632726	      8.49202097	     -0.81197546	      0.87134455	      0.26431683	     33.32590253	     -3.01442156	     -8.28493576	     -5.49004085	      4.91795526	      3.29133543	      5.66647821	    -20.44806273	      1.47686797	      3.79284588	     -4.47054314	     12.36812907	      5.03588615	     14.74038538	     -2.87553270	     -3.29729250	    -11.71487592
      0.60816667	     -4.23904578	      1.61707795	      8.61488335	     -0.80603689	      0.87034633	      0.26444220	     33.50053919	     -2.86112883	     -8.20448717	     -6.08853698	      4.68232967	      2.96208421	      5.60130872	    -20.50329299	      1.23328716	      3.75285848	     -4.96989723	     12.29066037	      5.19638064	     14.80952505	     -2.76981276	     -3.08327835	    -11.72878883
      0.61233333	     -4.28520171	      1.47632037	      8.72622683	     -0.80006548	      0.86939467	      0.26460174	     33.65113828	     -2.68525728	     -8.10632587	     -6.70971573	      4.37733579	      2.56644020	      5.54997244	    -20.54374018	      0.97578608	      3.64284093	     -5.54230634	     12.22628397	      5.43533274	     14.92274622	     -2.67199301	     -2.84472097	    -11.74029302
      0.61650000	     -4.30688544	      1.34363476	      8.80985405	     -0.79406866	      0.86849945	      0.26482269	     33.78231513	     -2.49693354	     -7.97526990	     -7.37139251	      3.99211417	      2.12309570	      5.50440991	    -20.60674879	      0.72801667	      3.48007781	     -6.11778324	     12.16779646	      5.73370029	     15.14900808	     -2.62595529	     -2.63418791	    -11.74209596
      0.62066667	     -4.37660922	      1.17976419	      8.91001098	     -0.78799051	      0.86759595	      0.26501235	     33.94738124	     -2.29522467	     -7.88346773	     -8.03707712	      3.58229391	      1.72567166	      5.48994648	    -20.60796579	      0.45524659	      3.40510287	     -6.70477626	     11.98552741	      5.85409266	     15.30576570	     -2.47843278	     -2.35528007	    -11.72407815
      0.62483333	     -4.43678710	      1.02567673	      8.98062959	     -0.78190344	      0.86672060	      0.26529359	     34.10870896	     -2.07776175	     -7.71708404	     -8.73090559	      3.07069331	      1.17521525	      5.48995608	    -20.59484809	      0.19532695	      3.26340755	     -7.34949589	     11.81862614	      6.03961539	     15.52564718	     -2.36358018	     -2.11566819	    -11.69230611
      0.62900000	     -4.41202091	      0.81096876	      9.02510670	     -0.77570540	      0.86598186	      0.26563698	     34.16083331	     -1.77126270	     -7.56303270	     -9.40394457	      2.52069516	      0.60201040	      5.58886744	    -20.65440826	     -0.14973276	      2.92729853	     -8.02173574	     11.69008969	      6.50884535	     16.53175412	     -2.34467926	     -1.78023184	    -11.64823490
      0.63316667	     -4.54386919	      0.67366080	      9.09831973	     -0.76959210	      0.86509821	      0.26592777	     34.42311988	     -1.58894856	     -7.42164962	    -10.19810744	      1.96629384	      0.14547095	      5.60521531	    -20.54648035	     -0.37012098	      2.95787838	     -8.69552515	     11.41360589	      6.41224116	     16.72692277	     -2.14743225	     -1.57670318	    -11.60033032
      0.63733333	     -4.58644808	      0.50017013	      9.12511524	     -0.76338336	      0.86434408	      0.26633063	     34.57941753	     -1.32275821	     -7.21671667	    -10.97777151	      1.36064711	     -0.49698721	      6.38113782	    -20.50925239	     -0.64958706	      2.72871461	     -9.40796271	     11.10323863	      6.59839771	     21.35379021	     -2.04250676	     -1.31098714	    -11.54262980
      0.64150000	     -4.68053478	      0.31683334	      9.16695448	     -0.75715299	      0.86359176	      0.26669509	     34.79229585	     -1.07206937	     -7.06682785	    -11.77812386	      0.72781060	     -0.97633390	      6.36850170	    -20.40937387	     -0.91909070	      2.68084701	    -10.13963635	     10.77578968	      6.54798216	     21.39323629	     -1.86916164	     -1.02705700	    -11.46509145
      0.64566667	     -4.76539223	      0.13893239	      9.17503629	     -0.75089848	      0.86286724	      0.26715186	     35.01121838	     -0.79945737	     -6.84533910	    -12.62152565	      0.09986314	     -1.59703833	      6.36745941	    -20.29723633	     -1.17972299	      2.56987867	    -10.92210339	     10.45415455	      6.60104545	     21.48795285	     -1.71515014	     -0.76883425	    -11.37212266
      0.64983333	     -4.84700104	     -0.04722957	      9.18422026	     -0.74460752	      0.86219447	      0.26760435	     35.23256377	     -0.52505871	     -6.64778947	    -13.49552996	     -0.49750825	     -2.13233847	      6.37158475	    -20.16718091	     -1.45136718	      2.44040436	    -11.74012899	     10.06568777	      6.63772602	     21.60327689	     -1.54552063	     -0.47856190	    -11.28030146
      0.65400000	     -4.90166860	     -0.23685103	      9.17610933	     -0.73830092	      0.86158486	      0.26812410	     35.44158066	     -0.22843652	     -6.42658846	    -14.41228433	     -1.10367620	     -2.80201298	      6.39540719	    -20.03470602	     -1.73098952	      2.27308089	    -12.62161061	      9.76364676	      6.75567185	     21.87210356	     -1.42674501	     -0.19666649	    -11.15158238
      0.65816667	     -4.99172168	     -0.42208036	      9.15985182	     -0.73195995	      0.86097745	      0.26864234	     35.69983718	      0.05424550	     -6.22092357	    -15.37113373	     -1.63141069	     -3.31520834	      6.41698022	    -19.85121694	     -1.99221870	      2.15065762	    -13.52122580	      9.31696642	      6.76854766	     22.16085818	     -1.24896612	      0.08133976	    -11.04025003
